<?xml version="1.0" encoding="utf-8"?>
<!-- Generator: Adobe Illustrator 27.5.0, SVG Export Plug-In . SVG Version: 6.00 Build 0)  -->
<svg version="1.1" id="Layer_1" xmlns="http://www.w3.org/2000/svg" xmlns:xlink="http://www.w3.org/1999/xlink" x="0px" y="0px"
	 viewBox="0 0 60 50" style="enable-background:new 0 0 60 50;" xml:space="preserve">
<style type="text/css">
	.st0{fill:#2892F6;}
</style>
<g>
	<g>
		<path class="st0" d="M54.6,45.6H5.3c-1.6,0-2.9-1.3-2.9-2.9v-1.5h55.3v1.5C57.6,44.3,56.3,45.6,54.6,45.6z"/>
	</g>
	<g>
		<path class="st0" d="M49.3,37.9H10.7c-2.1,0-3.7-1.7-3.7-3.7v-26c0-2.1,1.7-3.7,3.7-3.7h38.6c2.1,0,3.7,1.7,3.7,3.7v26
			C53,36.2,51.3,37.9,49.3,37.9z M10.7,7.4c-0.4,0-0.7,0.3-0.7,0.7v26c0,0.4,0.3,0.7,0.7,0.7h38.6c0.4,0,0.7-0.3,0.7-0.7v-26
			c0-0.4-0.3-0.7-0.7-0.7C49.3,7.4,10.7,7.4,10.7,7.4z"/>
	</g>
</g>
<g>
	<circle class="st0" cx="30" cy="19.8" r="5.1"/>
	<path class="st0" d="M39,31.5c-1.9-2.9-5.2-4.8-9-4.8c-3.8,0-7,1.9-9,4.8H39z"/>
</g>
</svg>
