<?xml version="1.0" encoding="utf-8"?>
<!-- Generator: Adobe Illustrator 27.5.0, SVG Export Plug-In . SVG Version: 6.00 Build 0)  -->
<svg version="1.1" id="Layer_1" xmlns="http://www.w3.org/2000/svg" xmlns:xlink="http://www.w3.org/1999/xlink" x="0px" y="0px"
	 viewBox="0 0 60 50" style="enable-background:new 0 0 60 50;" xml:space="preserve">
<style type="text/css">
	.st0{fill:#2892F6;}
</style>
<g>
	<g>
		<path class="st0" d="M47.4,48.5H12.6c-2.2,0-4.1-1.1-5.3-2.9s-1.2-4.1-0.3-6L24.5,4.9c1.1-2.1,3.2-3.4,5.5-3.4c0,0,0,0,0,0
			c2.4,0,4.5,1.3,5.5,3.4l17.4,34.7c1,1.9,0.9,4.2-0.3,6S49.5,48.5,47.4,48.5z M30,4.5c-1.2,0-2.3,0.7-2.8,1.8L9.8,40.9
			c-0.5,1-0.4,2.2,0.1,3.1c0.6,0.9,1.6,1.5,2.7,1.5h34.7c1.1,0,2.1-0.6,2.7-1.5c0.6-0.9,0.6-2.1,0.1-3.1L32.8,6.2
			C32.3,5.1,31.2,4.5,30,4.5L30,4.5z"/>
	</g>
	<g>
		<g>
			<ellipse transform="matrix(0.2298 -0.9732 0.9732 0.2298 -12.9162 57.707)" class="st0" cx="30" cy="37" rx="3" ry="3"/>
		</g>
		<g>
			<polygon class="st0" points="32.4,31.4 27.6,31.4 27,17.1 33,17.1 			"/>
		</g>
	</g>
</g>
</svg>
