<?xml version="1.0" encoding="utf-8"?>
<!-- Generator: Adobe Illustrator 27.5.0, SVG Export Plug-In . SVG Version: 6.00 Build 0)  -->
<svg version="1.1" id="Layer_1" xmlns="http://www.w3.org/2000/svg" xmlns:xlink="http://www.w3.org/1999/xlink" x="0px" y="0px"
	 viewBox="0 0 60 50" style="enable-background:new 0 0 60 50;" xml:space="preserve">
<style type="text/css">
	.st0{fill:#2892F6;}
</style>
<g>
	<g>
		<path class="st0" d="M42.8,44.7c-4.5,0-8.9-1.3-13.2-2.6c-6.9-2.1-13.5-4-19.9-0.7c-0.7,0.4-1.5,0.3-2.2-0.1
			c-0.7-0.4-1.1-1.1-1.1-1.9V9.8c0-0.8,0.4-1.6,1.1-2C15.3,3.4,23,5.7,30.4,7.9c6.9,2.1,13.5,4,19.9,0.7c0.7-0.4,1.5-0.3,2.2,0.1
			c0.7,0.4,1.1,1.1,1.1,1.9v29.6c0,0.8-0.4,1.6-1.1,2c0,0,0,0,0,0C49.2,44,46,44.7,42.8,44.7z M17.2,36.6c4.5,0,8.9,1.3,13.2,2.6
			c7,2.1,13.6,4.1,20.2,0.6v-28c-7.2,3.1-14.2,1-21.1-1c-7-2.1-13.6-4.1-20.2-0.6v28C12,37.1,14.6,36.6,17.2,36.6z M51.8,40.9
			L51.8,40.9L51.8,40.9z"/>
	</g>
	<g>
		<polygon class="st0" points="30,15.9 32.8,21.4 38.9,22.3 34.5,26.7 35.5,32.8 30,29.9 24.5,32.8 25.5,26.7 21.1,22.3 27.2,21.4 
					"/>
	</g>
</g>
</svg>
