<?xml version="1.0" encoding="utf-8"?>
<!-- Generator: Adobe Illustrator 27.5.0, SVG Export Plug-In . SVG Version: 6.00 Build 0)  -->
<svg version="1.1" id="Layer_1" xmlns="http://www.w3.org/2000/svg" xmlns:xlink="http://www.w3.org/1999/xlink" x="0px" y="0px"
	 viewBox="0 0 60 50" style="enable-background:new 0 0 60 50;" xml:space="preserve">
<style type="text/css">
	.st0{fill:#2892F6;}
</style>
<g>
	<path class="st0" d="M44.5,18c-1.9,0-3.8-0.7-5.3-2.2c-2.9-2.9-2.9-7.7,0-10.6c2.9-2.9,7.7-2.9,10.6,0c2.9,2.9,2.9,7.7,0,10.6
		C48.4,17.3,46.4,18,44.5,18z M44.5,6c-1.2,0-2.3,0.4-3.2,1.3c-1.8,1.8-1.8,4.6,0,6.4c1.8,1.8,4.6,1.8,6.4,0c1.8-1.8,1.8-4.6,0-6.4
		C46.8,6.4,45.7,6,44.5,6z"/>
</g>
<g>
	<path class="st0" d="M15.5,18C11.3,18,8,14.6,8,10.5C8,6.3,11.3,3,15.5,3c4.1,0,7.5,3.4,7.5,7.5C23,14.6,19.6,18,15.5,18z M15.5,6
		C13,6,11,8,11,10.5c0,2.5,2,4.5,4.5,4.5c2.5,0,4.5-2,4.5-4.5C20,8,18,6,15.5,6z"/>
</g>
<g>
	<path class="st0" d="M15.5,47c-1.9,0-3.8-0.7-5.3-2.2c-2.9-2.9-2.9-7.7,0-10.6c2.9-2.9,7.7-2.9,10.6,0l0,0c2.9,2.9,2.9,7.7,0,10.6
		C19.3,46.3,17.4,47,15.5,47z M15.5,35c-1.2,0-2.3,0.4-3.2,1.3c-1.8,1.8-1.8,4.6,0,6.4c1.8,1.8,4.6,1.8,6.4,0c1.8-1.8,1.8-4.6,0-6.4
		C17.8,35.4,16.6,35,15.5,35z"/>
</g>
<g>
	<path class="st0" d="M44.5,47c-4.1,0-7.5-3.4-7.5-7.5s3.4-7.5,7.5-7.5s7.5,3.4,7.5,7.5S48.7,47,44.5,47z M44.5,35
		C42,35,40,37,40,39.5s2,4.5,4.5,4.5s4.5-2,4.5-4.5S47,35,44.5,35z"/>
</g>
<g>
	<rect x="15.5" y="23.5" transform="matrix(0.7071 -0.7071 0.7071 0.7071 -8.8909 28.5355)" class="st0" width="29" height="3"/>
</g>
<g>
	<rect x="21.5" y="9" class="st0" width="16.9" height="3"/>
</g>
<g>
	<rect x="43" y="16.6" class="st0" width="3" height="16.9"/>
</g>
</svg>
