<?xml version="1.0" encoding="utf-8"?>
<!-- Generator: Adobe Illustrator 27.5.0, SVG Export Plug-In . SVG Version: 6.00 Build 0)  -->
<svg version="1.1" id="Layer_1" xmlns="http://www.w3.org/2000/svg" xmlns:xlink="http://www.w3.org/1999/xlink" x="0px" y="0px"
	 viewBox="0 0 60 50" style="enable-background:new 0 0 60 50;" xml:space="preserve">
<style type="text/css">
	.st0{fill:#2892F6;}
</style>
<g>
	<g>
		<path class="st0" d="M30,45.9c-0.4,0-0.8-0.1-1.1-0.4l-5.2-5.2H12.1c-3.2,0-5.8-2.6-5.8-5.8V9.9c0-3.2,2.6-5.8,5.8-5.8h35.7
			c3.2,0,5.8,2.6,5.8,5.8v24.5c0,3.2-2.6,5.8-5.8,5.8H36.2l-5.2,5.2C30.8,45.7,30.4,45.9,30,45.9z M12.1,7.1c-1.5,0-2.8,1.2-2.8,2.8
			v24.5c0,1.5,1.2,2.8,2.8,2.8h12.2c0.4,0,0.8,0.2,1.1,0.4l4.6,4.6l4.6-4.6c0.3-0.3,0.7-0.4,1.1-0.4h12.2c1.5,0,2.8-1.2,2.8-2.8V9.9
			c0-1.5-1.2-2.8-2.8-2.8H12.1z"/>
	</g>
	<g>
		<path class="st0" d="M30,30.6c-5.1-2.7-8.5-5.8-8.5-9.7c0-2.7,2.2-4.9,4.9-4.9c1.4,0,2.7,0.6,3.6,1.6c0.9-1,2.2-1.6,3.6-1.6
			c2.7,0,4.9,2.2,4.9,4.9C38.5,24.8,35.1,27.9,30,30.6z"/>
	</g>
</g>
</svg>
